<?xml version="1.0" standalone="no"?>
<!DOCTYPE svg PUBLIC "-//W3C//DTD SVG 20010904//EN"
 "http://www.w3.org/TR/2001/REC-SVG-20010904/DTD/svg10.dtd">
<svg version="1.0" xmlns="http://www.w3.org/2000/svg"
 width="500.000000pt" height="500.000000pt" viewBox="0 0 500.000000 500.000000"
 preserveAspectRatio="xMidYMid meet">
<metadata>
Created by potrace 1.14, written by Peter Selinger 2001-2017
</metadata>
<g transform="translate(0.000000,500.000000) scale(0.100000,-0.100000)"
fill="#000000" stroke="none">
<path d="M0 2500 l0 -2500 2500 0 2500 0 0 2500 0 2500 -2500 0 -2500 0 0
-2500z m1292 687 c4 -6 8 -24 8 -39 0 -21 5 -28 20 -28 11 0 20 -4 20 -10 0
-6 -32 -10 -75 -10 -73 0 -75 -1 -75 -24 0 -54 -10 -56 -281 -56 -239 0 -289
-5 -289 -30 0 -6 33 -10 74 -10 l73 0 -10 -40 -11 -40 -68 0 -68 0 0 -60 0
-60 160 0 c136 0 160 -2 160 -15 0 -13 -23 -15 -150 -15 l-150 0 0 -95 c0
-108 -13 -97 110 -98 l65 0 -56 -4 c-55 -4 -55 -4 -51 -33 2 -17 11 -30 23
-33 11 -3 19 -14 19 -26 0 -11 11 -33 24 -48 l24 -28 258 -3 c163 -2 263 -7
271 -14 7 -6 13 -19 13 -29 0 -17 -8 -19 -60 -19 l-60 0 0 -35 0 -35 50 0 c38
0 50 -4 50 -15 0 -12 -13 -15 -59 -15 -33 0 -63 -4 -66 -10 -7 -12 -524 -12
-570 0 -26 7 -24 8 20 9 46 2 49 3 31 16 -11 9 -41 15 -70 15 -41 0 -55 5 -78
27 -15 15 -28 30 -28 35 0 4 23 8 51 8 49 0 51 1 44 23 -4 12 -13 47 -19 77
-9 37 -18 56 -29 58 -10 2 -17 13 -17 27 0 41 -11 55 -41 55 l-29 0 0 100 0
100 45 0 c25 0 45 5 45 10 0 6 -27 10 -60 10 l-60 0 0 44 c0 72 4 76 76 76 43
0 66 4 68 13 3 6 7 24 10 40 l6 27 -79 0 -80 0 14 45 c22 73 25 75 141 75 58
0 106 4 109 10 3 6 -4 10 -17 10 -21 0 -21 1 -5 18 10 9 39 29 65 44 l47 28
254 -5 c189 -4 257 -8 263 -18z m916 13 c38 -5 82 -20 110 -37 l47 -28 -33 -3
c-31 -3 -32 -4 -17 -25 21 -30 19 -37 -9 -37 -23 0 -23 0 -8 -45 14 -44 15
-45 57 -45 41 0 43 -1 49 -37 3 -21 6 -70 6 -110 l0 -72 -32 -3 c-38 -3 -44
-21 -10 -26 20 -3 22 -8 22 -73 0 -39 4 -69 10 -69 6 0 10 -20 10 -45 0 -37
-3 -45 -19 -45 -15 0 -20 -10 -26 -47 -11 -74 -21 -93 -50 -93 -16 0 -25 -6
-25 -15 0 -10 11 -15 35 -15 l36 0 -16 -29 c-18 -36 -28 -43 -80 -52 -22 -4
-67 -17 -99 -29 -55 -20 -75 -21 -295 -18 -209 3 -241 5 -276 22 -40 20 -40
20 -12 24 l28 3 -32 37 c-28 32 -40 38 -88 42 -63 6 -85 30 -26 30 35 0 37 2
31 25 -4 14 -9 45 -13 70 -4 35 -10 45 -24 45 -16 0 -19 8 -19 45 0 38 3 45
20 45 18 0 20 7 20 70 l0 70 -30 0 c-20 0 -30 5 -30 15 0 11 12 15 45 15 l45
0 0 64 c0 35 3 84 6 110 l7 46 -42 0 c-45 0 -48 6 -30 59 9 24 17 31 38 31 19
0 34 9 49 30 16 21 31 30 52 30 16 0 51 14 79 31 29 18 71 34 103 39 76 11
361 11 436 0z m1057 1 c33 -5 74 -15 90 -22 l30 -13 -55 -6 c-74 -7 -48 -24
39 -25 61 0 65 -2 91 -35 16 -19 31 -45 35 -57 6 -22 4 -23 -55 -23 -57 0 -61
-2 -56 -20 3 -11 9 -29 12 -40 4 -17 14 -20 58 -20 52 0 54 -1 60 -31 3 -17 6
-44 6 -60 0 -26 -4 -29 -30 -29 -20 0 -30 -5 -30 -15 0 -11 11 -15 40 -15 l40
0 0 -95 0 -95 -35 0 c-34 0 -35 -1 -35 -40 0 -36 2 -40 25 -40 24 0 25 -2 19
-42 -4 -24 -12 -59 -18 -78 -9 -30 -16 -35 -46 -38 -27 -3 -40 -11 -57 -38
-22 -34 -22 -34 -2 -34 12 0 19 -5 17 -12 -3 -8 -31 -15 -69 -19 -37 -3 -85
-16 -114 -30 -49 -23 -57 -24 -327 -27 l-276 -3 -34 30 -33 30 58 1 c61 0 79
17 25 22 -30 3 -33 6 -36 41 -3 36 -3 37 32 37 l36 0 0 80 c0 79 0 80 -25 80
-22 0 -25 4 -25 40 0 38 2 40 30 40 l30 0 0 64 c0 35 3 78 6 95 6 31 6 31 -35
31 -30 0 -41 4 -41 15 0 10 10 15 30 15 l30 0 0 60 0 60 -55 0 -55 0 0 40 0
40 60 0 c50 0 60 3 60 18 0 9 3 34 6 55 l7 37 -63 0 c-45 0 -61 3 -58 13 3 7
27 13 63 15 36 2 68 10 84 21 14 10 35 21 46 24 35 8 438 7 500 -2z m1179 3
c9 -3 16 -15 16 -25 0 -17 8 -19 70 -19 90 0 92 -18 3 -22 l-68 -3 0 -35 c0
-33 2 -35 37 -38 27 -2 35 -7 31 -18 -8 -22 -748 -21 -757 1 -3 9 -19 15 -41
15 -34 0 -35 1 -35 40 l0 40 65 0 c37 0 65 4 65 10 0 6 -28 10 -65 10 -57 0
-65 2 -65 19 0 11 6 22 13 24 18 8 712 8 731 1z m-14 -244 c0 -6 -75 -10 -204
-10 -126 0 -207 4 -211 10 -4 7 67 10 204 10 134 0 211 -4 211 -10z m-277 -97
c-56 -2 -151 -2 -210 0 -59 1 -13 3 102 3 116 0 164 -2 108 -3z m-3231 -20
c-40 -2 -103 -2 -140 0 -37 2 -4 3 73 3 77 0 107 -2 67 -3z m3602 -59 c9 -8
16 -22 16 -30 0 -8 10 -14 25 -14 18 0 25 -5 25 -20 0 -15 -7 -20 -25 -20 -18
0 -25 -5 -25 -19 0 -11 -3 -26 -6 -35 -4 -11 3 -16 33 -19 21 -2 -79 -4 -223
-5 -299 -2 -384 -8 -384 -28 0 -11 42 -14 225 -14 193 0 225 -2 225 -15 0 -13
-32 -15 -225 -15 l-225 0 0 -30 c0 -29 2 -30 46 -30 39 0 50 -5 78 -35 l33
-35 254 -2 c140 -1 232 -3 206 -5 -39 -3 -47 -7 -43 -19 3 -9 6 -33 6 -55 0
-36 2 -39 28 -39 37 0 72 -10 72 -21 0 -5 -22 -9 -48 -9 -45 0 -48 -2 -57 -32
l-10 -33 -259 -3 c-277 -3 -336 5 -387 48 l-24 19 50 1 c66 0 47 18 -25 22
l-55 3 -22 55 -22 55 55 3 c45 2 55 6 50 18 -3 9 -6 24 -6 35 0 16 -7 19 -50
19 l-50 0 0 35 0 35 55 0 c42 0 55 3 55 15 0 12 -13 15 -55 15 -42 0 -55 3
-55 15 0 10 11 15 35 15 19 0 35 5 35 10 0 6 -15 10 -34 10 -41 0 -46 6 -39
43 4 20 11 27 29 27 13 0 24 2 24 4 0 2 3 11 6 19 4 11 -2 16 -23 19 l-28 3
23 20 c12 11 32 23 45 27 12 3 165 6 339 7 275 1 319 -1 332 -15z m-3274 -109
c0 -13 -28 -15 -195 -15 -167 0 -195 2 -195 15 0 13 28 15 195 15 167 0 195
-2 195 -15z m3172 -202 c-40 -2 -103 -2 -140 0 -37 2 -4 3 73 3 77 0 107 -2
67 -3z m-3264 -10 c-38 -2 -98 -2 -135 0 -38 2 -7 3 67 3 74 0 105 -1 68 -3z"/>
<path d="M1649 3000 l-24 -19 44 -1 c37 0 42 -2 36 -17 -4 -10 -9 -59 -12
-110 l-6 -92 124 -3 c170 -4 158 -22 -16 -26 l-135 -3 0 -75 c0 -71 -1 -75
-20 -69 -18 6 -20 2 -20 -39 0 -38 3 -46 18 -46 13 0 21 -13 30 -46 19 -70 42
-76 272 -72 211 3 220 6 242 80 8 27 17 38 30 38 16 0 19 6 16 43 -3 39 -5 42
-33 42 l-30 0 -3 73 c-2 55 -6 72 -17 72 -8 0 -15 7 -15 15 0 11 12 15 51 15
l52 0 -6 93 c-6 120 -10 127 -59 127 -25 0 -50 8 -65 20 -24 19 -41 20 -228
20 -187 0 -205 -2 -226 -20z m441 -80 c0 -6 -45 -10 -115 -10 -70 0 -115 4
-115 10 0 6 45 10 115 10 70 0 115 -4 115 -10z m-247 -307 c-23 -2 -64 -2 -90
0 -26 2 -7 3 42 3 50 0 71 -1 48 -3z m205 -100 c-27 -2 -69 -2 -95 0 -27 2 -5
3 47 3 52 0 74 -1 48 -3z m-210 -60 c-15 -2 -42 -2 -60 0 -18 2 -6 4 27 4 33
0 48 -2 33 -4z"/>
<path d="M2740 2980 l0 -40 55 0 55 0 0 -60 0 -60 -30 0 c-20 0 -30 -5 -30
-15 0 -10 11 -15 35 -15 34 0 35 -1 35 -39 0 -29 -5 -41 -17 -44 -17 -4 -17
-5 0 -6 14 -1 17 -10 17 -51 0 -49 -1 -50 -30 -50 -28 0 -30 -2 -30 -40 0 -36
3 -40 25 -40 21 0 25 -5 25 -30 l0 -30 125 0 c118 0 125 -1 125 -20 0 -19 -7
-20 -125 -20 -118 0 -125 -1 -125 -20 0 -19 6 -20 188 -19 117 0 200 5 222 12
35 12 62 49 74 100 6 24 3 27 -18 27 -31 0 -35 7 -29 48 5 28 9 32 34 32 l29
0 0 95 0 95 -145 0 c-122 0 -145 2 -145 15 0 13 22 15 140 15 158 0 148 -6
134 83 l-7 37 -58 0 c-49 0 -59 3 -64 20 -3 11 -19 29 -35 40 -26 18 -43 20
-229 20 l-201 0 0 -40z m285 10 c4 -6 -25 -10 -79 -10 -51 0 -86 4 -86 10 0 6
33 10 79 10 44 0 83 -4 86 -10z m65 -287 c0 -5 -50 -9 -110 -11 -74 -3 -110 0
-110 7 0 7 38 11 110 11 61 0 110 -3 110 -7z m52 -120 c-40 -2 -103 -2 -140 0
-37 2 -4 3 73 3 77 0 107 -2 67 -3z"/>
</g>
</svg>
